<?xml version="1.0" standalone="no"?><!-- Generator: Gravit.io --><svg xmlns="http://www.w3.org/2000/svg" xmlns:xlink="http://www.w3.org/1999/xlink" style="isolation:isolate" viewBox="0 0 128 128" width="128" height="128"><defs><clipPath id="_clipPath_wVRX8ZSuxcJYEvp2IbV8fuZepcnlFzhM"><rect width="128" height="128"/></clipPath></defs><g clip-path="url(#_clipPath_wVRX8ZSuxcJYEvp2IbV8fuZepcnlFzhM)"><path d=" M 102.283 14.795 L 89.148 38.352 L 112.705 25.217 L 112.768 25.28 L 120.358 17.69 L 109.81 7.142 L 102.22 14.732 L 102.283 14.795 L 102.283 14.795 Z " fill="rgb(43,73,0)"/><path d=" M 73.78 65.913 L 102.283 14.795 L 89.988 2.5 L 61.728 53.86 L 73.78 65.913 L 73.78 65.913 Z " fill="rgb(97,147,0)"/><path d=" M 15.57 117.41 L 10.23 112.07 C 8.434 110.272 7.438 107.826 7.469 105.285 C 7.5 102.744 8.555 100.323 10.395 98.57 L 61.728 53.86 L 73.78 65.91 L 29.073 117.245 C 27.319 119.086 24.898 120.141 22.356 120.172 C 19.814 120.203 17.368 119.207 15.57 117.41 L 15.57 117.41 Z " fill="rgb(192,204,143)"/><path d=" M 15.57 117.41 L 10.23 112.07 C 8.434 110.272 7.438 107.826 7.469 105.285 C 7.5 102.744 8.555 100.323 10.395 98.57 L 61.728 53.86 L 73.78 65.91 L 29.073 117.245 C 27.319 119.086 24.898 120.141 22.356 120.172 C 19.814 120.203 17.368 119.207 15.57 117.41 L 15.57 117.41 Z " fill="rgb(192,204,143)"/><path d=" M 73.78 65.91 L 67.33 59.46 L 22.62 110.792 C 19.176 114.409 13.51 114.715 9.697 111.49 C 9.868 111.688 10.043 111.883 10.23 112.07 L 15.57 117.41 C 17.368 119.206 19.814 120.202 22.355 120.171 C 24.896 120.14 27.317 119.085 29.07 117.245 L 73.78 65.91 Z " fill="rgb(176,181,77)"/><path d=" M 10.395 98.568 C 8.555 100.321 7.5 102.742 7.469 105.283 C 7.438 107.824 8.434 110.27 10.23 112.068 L 15.57 117.41 C 17.368 119.206 19.814 120.202 22.355 120.171 C 24.896 120.14 27.317 119.085 29.07 117.245 L 55.415 86.995 L 40.643 72.223 L 10.395 98.568 Z " fill="rgb(232,232,232)"/><path d=" M 55.418 86.995 L 48.967 80.542 L 22.62 110.792 C 19.176 114.409 13.51 114.715 9.697 111.49 C 9.867 111.688 10.042 111.883 10.23 112.07 L 15.57 117.41 C 17.368 119.206 19.814 120.202 22.355 120.171 C 24.896 120.14 27.317 119.085 29.07 117.245 L 55.418 86.995 Z " fill="rgb(206,206,206)"/><path d=" M 15.57 117.41 L 10.23 112.07 C 8.434 110.272 7.438 107.826 7.469 105.285 C 7.5 102.744 8.555 100.323 10.395 98.57 L 61.728 53.86 L 73.78 65.91 L 29.073 117.245 C 27.319 119.086 24.898 120.141 22.356 120.172 C 19.814 120.203 17.368 119.207 15.57 117.41 L 15.57 117.41 Z " fill="none" vector-effect="non-scaling-stroke" stroke-width="5" stroke="rgb(0,0,0)" stroke-linejoin="round" stroke-linecap="round" stroke-miterlimit="4"/><path d=" M 73.78 65.913 L 102.283 14.795 L 89.988 2.5 L 61.728 53.86 L 73.78 65.913 L 73.78 65.913 Z " fill="none" vector-effect="non-scaling-stroke" stroke-width="5" stroke="rgb(0,0,0)" stroke-linejoin="round" stroke-linecap="round" stroke-miterlimit="4"/><path d=" M 73.78 65.913 L 102.283 14.795 L 89.988 2.5 L 61.728 53.86 L 73.78 65.913 L 73.78 65.913 Z " fill="none" vector-effect="non-scaling-stroke" stroke-width="5" stroke="rgb(0,0,0)" stroke-linejoin="round" stroke-linecap="round" stroke-miterlimit="4"/><path d=" M 74.013 65.542 L 125 37.512 L 112.705 25.217 L 89.148 38.352 L 74.013 65.542 L 74.013 65.542 Z " fill="rgb(53,94,0)"/><path d=" M 61.588 53.717 L 61.728 53.86 L 61.958 53.487 L 61.588 53.717 L 61.588 53.717 Z " fill="rgb(53,94,0)"/><path d=" M 74.013 65.542 L 125 37.512 L 112.705 25.217 L 89.148 38.352 L 74.013 65.542 L 74.013 65.542 Z " fill="none" vector-effect="non-scaling-stroke" stroke-width="5" stroke="rgb(0,0,0)" stroke-linejoin="round" stroke-linecap="round" stroke-miterlimit="4"/><path d=" M 61.588 53.717 L 61.728 53.86 L 61.958 53.487 L 61.588 53.717 L 61.588 53.717 Z " fill="none" vector-effect="non-scaling-stroke" stroke-width="5" stroke="rgb(0,0,0)" stroke-linejoin="round" stroke-linecap="round" stroke-miterlimit="4"/><path d=" M 102.283 14.795 L 89.148 38.352 L 112.705 25.217 L 112.768 25.28 L 120.358 17.69 L 109.81 7.142 L 102.22 14.732 L 102.283 14.795 L 102.283 14.795 Z " fill="none" vector-effect="non-scaling-stroke" stroke-width="5" stroke="rgb(0,0,0)" stroke-linejoin="round" stroke-linecap="round" stroke-miterlimit="4"/><line x1="12.83" y1="114.67" x2="6.883" y2="120.617" vector-effect="non-scaling-stroke" stroke-width="5" stroke="rgb(0,0,0)" stroke-linejoin="round" stroke-linecap="round" stroke-miterlimit="4"/><line x1="8.503" y1="110.345" x2="2.5" y2="112.807" vector-effect="non-scaling-stroke" stroke-width="5" stroke="rgb(0,0,0)" stroke-linejoin="round" stroke-linecap="round" stroke-miterlimit="4"/><line x1="17.155" y1="118.995" x2="14.693" y2="125" vector-effect="non-scaling-stroke" stroke-width="5" stroke="rgb(0,0,0)" stroke-linejoin="round" stroke-linecap="round" stroke-miterlimit="4"/><path d=" M 15.096 105.379 C 13.992 104.101 15.939 100.608 19.44 97.584 C 22.941 94.56 26.68 93.142 27.784 94.42 C 28.888 95.698 26.941 99.191 23.44 102.215 C 19.939 105.24 16.2 106.657 15.096 105.379 Z " fill="rgb(255,255,255)"/></g></svg>